<svg width="92" height="72" viewBox="0 0 92 72" fill="none" xmlns="http://www.w3.org/2000/svg">
  <path
    d="M3.01861 38.7134C1.45652 37.1513 1.45652 34.6187 3.01861 33.0566L11.5039 24.5713C13.066 23.0092 15.5987 23.0092 17.1607 24.5713L46.8592 54.2698C48.4213 55.8319 48.4213 58.3645 46.8592 59.9266L38.374 68.4119C36.8119 69.974 34.2792 69.974 32.7171 68.4119L3.01861 38.7134Z"
    fill="#F79E44" fill-opacity="0.6" />
  <path
    d="M75.0194 3.09527C76.5815 1.53317 79.1141 1.53318 80.6762 3.09527L89.1615 11.5806C90.7236 13.1427 90.7236 15.6753 89.1615 17.2374L37.9869 68.412C36.4248 69.974 33.8922 69.974 32.3301 68.4119L23.8448 59.9267C22.2827 58.3646 22.2827 55.8319 23.8448 54.2698L75.0194 3.09527Z"
    fill="#F79E44" />
</svg>
