<svg width="1001" height="1001" viewBox="0 0 1001 1001" fill="none" xmlns="http://www.w3.org/2000/svg">
    <ellipse rx="116.667" ry="116.667" transform="matrix(-1 0 0 1 884.016 117.204)" fill="#F79E44" />
    <circle cx="500.683" cy="500.537" r="500" fill="#FEF5EC" />
    <path
        d="M1.43314 883.871C1.43314 947.89 53.3308 999.787 117.35 999.787C181.369 999.787 233.266 947.89 233.266 883.871C233.266 819.852 181.369 767.954 117.35 767.954C53.3308 767.954 1.43314 819.852 1.43314 883.871Z"
        stroke="#F79E44" stroke-width="1.5" />
    <g clip-path="url(#clip0_121_73)">
        <path opacity="0.1"
            d="M387.259 752.198C459.097 752.198 517.334 741.195 517.334 727.623C517.334 714.051 459.097 703.049 387.259 703.049C315.42 703.049 257.184 714.051 257.184 727.623C257.184 741.195 315.42 752.198 387.259 752.198Z"
            fill="#F79E44" />
        <path
            d="M520.946 448.045L498.321 432.834L509.733 415.891L449.977 411.14L428.505 427.699L401.625 412.672L379.208 415.361L378.942 409.467C378.664 403.324 378.045 397.2 377.088 391.125C377.184 389.283 377.25 387.169 377.243 384.871C377.243 375.184 375.928 362.344 370.152 353.784L371.481 341.866L360.697 329.159C362.429 325.718 364.404 322.405 366.606 319.243C366.976 318.713 367.345 318.197 367.744 317.696C381.741 316.687 392.784 305.21 392.784 291.177C392.784 290.529 392.784 289.881 392.71 289.24C392.71 288.982 392.658 288.717 392.629 288.459C393.995 289.196 395.377 289.932 396.758 290.669C397.016 291.037 397.312 291.406 397.637 291.84L397.703 291.921L398.117 292.429L398.25 292.584C398.398 292.761 398.553 292.93 398.708 293.107L398.811 293.225C399.203 293.66 399.616 294.102 400.06 294.536C400.112 294.579 400.162 294.626 400.207 294.676L400.761 295.192L400.916 295.332C401.389 295.752 401.891 296.157 402.394 296.54L402.556 296.658L403.191 297.092L403.398 297.225C403.642 297.372 403.893 297.527 404.137 297.667L404.225 297.719C404.514 297.873 404.809 298.021 405.104 298.161L405.252 298.219C405.503 298.328 405.75 298.431 405.991 298.529L406.22 298.61C406.478 298.698 406.729 298.779 406.995 298.853L407.158 298.897C407.483 298.978 407.808 299.045 408.14 299.096H408.177C408.49 299.147 408.806 299.179 409.123 299.192H409.337C409.62 299.207 409.903 299.207 410.186 299.192H410.371C410.725 299.172 411.078 299.13 411.427 299.067C413.08 298.85 414.667 298.282 416.081 297.402C416.441 297.162 416.76 296.866 417.026 296.525C418.503 294.595 416.878 292.481 416.878 292.481C416.302 291.111 412.565 290.146 412.565 290.146C412.565 290.146 400.746 285.225 400.746 281.306C400.746 277.387 397.792 257.056 367.293 252.408C367.293 252.408 347.453 251.295 341.877 261.888L341.758 263.126C340.119 264.15 338.76 266.205 337.142 266.809C336.443 266.959 335.769 267.207 335.14 267.546V267.406C334.953 267.569 334.8 267.766 334.69 267.988C334.342 268.677 334.134 269.428 334.077 270.198C333.91 271.138 333.583 272.042 333.109 272.872C332.977 273.107 332.829 273.334 332.666 273.549V273.549L332.54 273.748C333.398 273.815 334.259 273.676 335.052 273.343C334.927 274.352 334.679 275.341 334.313 276.29C334.782 276.305 335.247 276.185 335.65 275.945C336.053 275.704 336.379 275.354 336.588 274.934V274.875L336.684 274.743C336.87 274.402 337.023 274.044 337.142 273.675L337.061 273.763C337.208 273.284 337.341 272.798 337.504 272.326C337.578 272.061 337.701 271.811 337.866 271.59C338.063 271.392 338.304 271.242 338.57 271.154C338.835 271.066 339.118 271.041 339.395 271.082L339.092 277.468H339.225C339.047 277.933 338.83 278.381 338.575 278.809C337.526 280.503 335.62 281.66 334.919 283.516C334.616 284.411 334.5 285.359 334.579 286.301C334.579 286.853 334.645 287.413 334.69 287.965V287.921C334.793 289.395 334.823 290.794 334.025 291.98C333.478 292.79 332.599 293.402 332.296 294.323C332.213 294.579 332.175 294.849 332.186 295.118C332.245 295.925 332.414 296.721 332.688 297.483C332.691 297.468 332.691 297.453 332.688 297.439C332.872 297.999 332.915 298.596 332.813 299.177C332.481 300.65 330.686 301.881 330.775 303.288C330.77 303.473 330.797 303.657 330.856 303.833C331.201 304.52 331.799 305.048 332.525 305.306C333.664 305.952 334.972 306.239 336.278 306.131C336.767 306.043 337.24 305.881 337.681 305.652C337.164 306.838 336.632 308.009 336.093 309.122C336.012 309.299 335.923 309.475 335.835 309.652C335.835 309.652 331.27 306.61 328.677 312.812C327.92 314.101 327.379 315.505 327.074 316.967C326.944 317.552 326.761 318.124 326.528 318.676C325.377 320.619 323.654 322.162 321.593 323.096C316.305 325.512 294.943 352.083 294.567 358.963C294.382 361.649 293.926 364.309 293.207 366.904C291.526 373.015 291.094 379.4 291.937 385.681C292.201 387.711 292.638 389.715 293.244 391.67C295.512 398.543 297.026 411.368 297.026 411.368L299.479 433.629C299.387 436.702 299.521 439.777 299.877 442.83C297.373 445.681 287.32 457.563 291.161 460.797C294.116 463.345 299.286 462.926 302.189 462.403C299.744 468.436 295.896 478.925 295.386 486.13C294.648 496.789 296.65 510.911 299.818 516.332C302.987 521.754 313.55 535.662 313.55 535.662C313.55 535.662 313.055 554.741 316.829 561.673C320.604 568.604 322.125 582.984 322.125 582.984C322.125 582.984 325.649 595.124 323.883 599.588C322.118 604.052 327.155 607.764 321.867 610.733C316.578 613.702 309.812 680.611 309.812 680.611C309.812 680.611 307.087 724.463 309.812 726.695C309.958 726.801 310.114 726.892 310.277 726.968V741.701C310.277 741.701 308.387 744.795 316.076 745.421C321.342 745.841 336.27 746.791 345.127 747.344L351.989 747.771C351.989 747.771 368.239 750.997 375.418 747.771C382.598 744.544 395.325 744.618 393.434 736.095C393.183 734.935 392.847 733.795 392.429 732.684C390.354 727.395 386.83 726.791 380.338 725.318C379.961 725.237 379.599 725.163 379.267 725.104C372.427 723.918 370.181 727.093 366.348 722.961C363.017 719.388 352.41 715.388 348.798 714.121C348.886 713.856 348.997 713.598 349.086 713.325C348.063 713.152 347.112 712.689 346.345 711.992L356.132 712.611L361.96 712.972C361.96 712.972 375.773 715.719 381.904 712.972C388.034 710.224 398.819 710.298 397.208 703.057C396.996 702.07 396.712 701.1 396.359 700.154C394.594 695.661 391.595 695.167 386.077 693.922C385.759 693.856 385.464 693.79 385.168 693.738C379.355 692.729 377.45 695.425 374.192 691.918C371.4 688.928 362.588 685.576 359.419 684.434C359.419 682.799 357.203 680.471 355.807 678.136C354.168 675.41 357.196 665.871 357.196 665.871L358.925 626.291C359.583 625.999 360.279 625.8 360.993 625.702C360.993 625.702 368.808 618.262 367.042 610.335C366.682 607.938 366.495 605.518 366.481 603.094C369.051 600.715 372.589 597.201 373.594 595.035C375.234 591.507 373.594 574.409 373.594 574.409V509.032L386.668 510.351L398.531 511.566L402.143 511.934L414.005 513.128L441.268 515.875L465.836 511.235L476.465 509.231L498.321 505.106V451.773L520.946 448.045ZM341.005 271.317L339.483 271.155C339.986 271.177 340.518 271.273 341.005 271.317Z"
            fill="url(#paint0_linear_121_73)" />
        <path
            d="M467.918 482.675C460.532 493.216 433.978 487.632 433.978 487.632L413.399 468.428L410.629 465.828L415.275 455.986C415.275 455.986 416.753 456.391 419.286 457.113C432.589 460.966 474.153 473.813 467.918 482.675Z"
            fill="#EFB7B9" />
        <path opacity="0.1"
            d="M419.272 457.113C418.363 460.266 415.874 464.988 413.399 468.428L410.629 465.828L415.275 455.986C415.275 455.986 416.768 456.391 419.272 457.113Z"
            fill="black" />
        <path
            d="M348.694 346.131C348.694 346.131 329.726 354.521 330.657 375.125C331.326 388.399 332.777 401.622 335 414.727C335 414.727 331.122 445.732 347.269 453.725C363.415 461.717 378.358 468.288 378.358 468.288C378.358 468.288 403.62 470.999 406.759 472.119C409.898 473.238 419.707 456.119 417.898 453.452C416.088 450.785 392.902 445.194 389.947 440.745C386.993 436.296 380.16 433.548 380.16 433.548C380.16 433.548 373.106 429.29 372.626 425.445C372.146 421.6 374.008 418.734 374.48 417.047C374.953 415.36 376.15 399.073 376.15 399.073C376.15 399.073 384.112 341.099 348.694 346.131Z"
            fill="#DCE6F2" />
        <path opacity="0.1"
            d="M361.214 413.88C361.214 413.88 335.192 418.226 337.711 427.309C337.711 427.309 347.158 417.504 361.214 413.88Z"
            fill="black" />
        <path opacity="0.1"
            d="M361.414 417.556C361.414 417.556 347.106 429.202 349.906 429.799C352.705 430.395 361.414 417.556 361.414 417.556Z"
            fill="black" />
        <path opacity="0.1"
            d="M368.29 421.614C368.29 421.614 364.457 429.445 366.813 428.914C369.169 428.384 368.29 421.614 368.29 421.614Z"
            fill="black" />
        <path opacity="0.1"
            d="M420.232 457.946L418.651 457.496C419.102 456.023 419.227 454.83 418.858 454.277C417.048 451.61 393.877 446.027 390.93 441.57C387.983 437.113 381.143 434.373 381.143 434.373C381.143 434.373 374.089 430.115 373.609 426.27C373.129 422.425 374.99 419.559 375.463 417.872C375.935 416.185 377.132 399.891 377.132 399.891C377.132 399.891 385.072 341.924 349.654 346.956C349.654 346.956 330.686 355.353 331.609 375.957C332.279 389.232 333.732 402.455 335.96 415.559C335.96 415.559 332.082 446.564 348.229 454.557C364.376 462.55 379.318 469.12 379.318 469.12C379.318 469.12 404.573 471.824 407.719 472.951C408.908 473.378 411.058 471.176 413.163 468.148L414.36 469.26L434.938 488.457C434.938 488.457 461.492 494.048 468.879 483.507C475.12 474.638 433.564 461.791 420.232 457.946Z"
            fill="black" />
        <path
            d="M337.777 268.798C337.054 268.939 336.361 269.206 335.731 269.586C334.992 270.197 334.992 271.243 334.808 272.157C334.591 273.428 334.085 274.632 333.33 275.678C334.171 275.74 335.014 275.601 335.79 275.273C335.663 276.281 335.415 277.271 335.051 278.219C335.512 278.231 335.965 278.11 336.358 277.871C336.751 277.632 337.067 277.285 337.267 276.871C337.658 276.041 337.967 275.175 338.191 274.286C338.26 274.02 338.38 273.77 338.545 273.549C339.225 272.746 340.488 273.107 341.537 273.21C342.409 273.284 343.286 273.123 344.076 272.745C344.865 272.367 345.539 271.785 346.028 271.059C347.143 269.372 347.209 265.056 344.55 264.599C341.773 264.142 340.045 267.958 337.777 268.798Z"
            fill="#965D7B" />
        <g opacity="0.1">
            <path opacity="0.1"
                d="M335.657 270.492C335.724 270.131 335.768 269.755 335.849 269.395C335.148 270.006 335.111 271.045 334.926 271.965C334.833 272.497 334.687 273.017 334.49 273.52C335.072 272.595 335.468 271.567 335.657 270.492V270.492Z"
                fill="black" />
            <path opacity="0.1"
                d="M335.894 276.577C336.261 275.629 336.509 274.639 336.632 273.63C335.893 273.941 335.092 274.079 334.291 274.035C334.057 274.553 333.773 275.047 333.441 275.509C334.279 275.573 335.12 275.437 335.894 275.111C335.771 276.12 335.523 277.109 335.155 278.057C335.615 278.068 336.068 277.947 336.461 277.708C336.854 277.469 337.17 277.122 337.371 276.709C337.555 276.374 337.703 276.021 337.814 275.656C337.597 275.958 337.308 276.201 336.972 276.362C336.636 276.523 336.265 276.597 335.894 276.577V276.577Z"
                fill="black" />
            <path opacity="0.1"
                d="M342.379 271.568C341.33 271.465 340.059 271.104 339.38 271.907C339.218 272.129 339.098 272.378 339.025 272.643C338.959 272.835 338.9 273.034 338.848 273.233C339.55 272.68 340.687 272.975 341.64 273.07C342.513 273.142 343.389 272.98 344.178 272.602C344.967 272.224 345.641 271.643 346.131 270.919C346.355 270.562 346.522 270.172 346.626 269.763C346.12 270.387 345.468 270.878 344.728 271.193C343.987 271.508 343.181 271.636 342.379 271.568Z"
                fill="black" />
        </g>
        <path d="M360.01 329.637L371.274 343.147L369.805 356.782L356.191 335.53L360.01 329.637Z" fill="#DCE6F2" />
        <path opacity="0.1"
            d="M371.267 343.147L369.886 355.972L369.797 356.782L357.514 337.6L356.191 335.53L356.575 334.934L360.003 329.637L360.764 330.551L371.267 343.147Z"
            fill="black" />
        <path
            d="M377.117 311.346C373.306 312.437 369.664 316.179 366.495 320.724C364.354 323.86 362.438 327.144 360.764 330.551C359.722 332.628 358.806 334.624 358.045 336.363L357.514 337.6C356.228 340.628 355.512 342.654 355.512 342.654C355.512 342.654 326.335 320.775 330.952 319.302C332.503 318.808 334.542 315.494 336.558 311.317L336.809 310.786C338.087 308.105 339.343 305.114 340.458 302.3C342.741 296.518 344.432 291.494 344.432 291.494C344.432 291.494 388.751 308.031 377.117 311.346Z"
            fill="#EFB7B9" />
        <path
            d="M394.571 290.264C394.571 290.264 401.308 302.418 410.356 300.761C419.405 299.103 415.682 294.234 415.682 294.234L394.571 290.264Z"
            fill="#444053" />
        <path
            d="M381.52 710.997C375.552 713.716 362.056 710.997 362.056 710.997L356.369 710.644C348.983 710.172 336.618 709.377 332.245 709.023C325.863 708.5 327.429 705.892 327.429 705.892V690.136L358.393 682.312C358.393 682.312 370.632 686.489 373.986 690.136C377.169 693.613 379.031 690.939 384.711 691.94C384.991 691.992 385.287 692.051 385.597 692.125C390.989 693.355 393.914 693.841 395.643 698.298C395.99 699.234 396.269 700.194 396.477 701.171C398.073 708.346 387.481 708.294 381.52 710.997Z"
            fill="#A36468" />
        <path opacity="0.1"
            d="M395.643 698.297C394.533 698.989 393.367 699.585 392.156 700.08C388.094 701.929 384.231 704.183 380.124 705.929C376.017 707.675 371.592 708.92 367.146 708.588C364.819 708.419 362.441 707.852 360.217 708.515C358.842 709.044 357.547 709.76 356.369 710.644C348.983 710.172 336.618 709.376 332.245 709.023C325.863 708.5 327.429 705.892 327.429 705.892V704.051C327.658 704.051 327.916 703.984 328.212 703.962C329.74 703.938 331.263 704.164 332.718 704.633C335.923 705.502 339.114 706.356 342.32 707.211C342.584 706.219 343.047 705.29 343.682 704.482C344.317 703.674 345.11 703.004 346.013 702.511C347.843 701.542 349.896 701.072 351.967 701.148C356.938 701.215 361.643 703.564 366.607 703.8C367.994 703.927 369.391 703.694 370.662 703.122C371.341 702.784 371.94 702.29 372.604 701.914C373.668 701.401 374.792 701.022 375.95 700.787C379.205 699.979 382.401 698.95 385.516 697.708C386.402 697.362 387.436 696.736 387.318 695.793C387.163 694.541 385.191 694.393 384.674 693.244C384.582 693.037 384.54 692.811 384.551 692.585C384.561 692.359 384.623 692.138 384.733 691.94C385.013 691.992 385.309 692.051 385.619 692.124C390.989 693.355 393.914 693.841 395.643 698.297Z"
            fill="black" />
        <path
            d="M375.212 745.472C368.195 748.669 352.314 745.472 352.314 745.472L345.629 745.082C336.972 744.529 322.391 743.608 317.243 743.174C309.731 742.555 311.578 739.491 311.578 739.491V720.92L348.015 711.712C348.015 711.712 362.418 716.625 366.363 720.92C370.108 725.008 372.272 721.863 378.986 723.041C379.318 723.1 379.666 723.174 380.028 723.255C386.373 724.728 389.815 725.281 391.846 730.526C392.257 731.627 392.586 732.757 392.828 733.907C394.66 742.349 382.229 742.283 375.212 745.472Z"
            fill="#A36468" />
        <path opacity="0.1"
            d="M391.831 730.526C390.526 731.339 389.155 732.041 387.732 732.625C382.953 734.798 378.403 737.45 373.572 739.505C368.741 741.561 363.534 743.019 358.297 742.636C355.564 742.437 352.764 741.752 350.172 742.548C348.547 743.179 347.018 744.032 345.629 745.082C336.972 744.529 322.391 743.608 317.243 743.174C309.731 742.555 311.578 739.491 311.578 739.491V737.325C311.883 737.275 312.192 737.241 312.501 737.222C314.3 737.189 316.093 737.455 317.804 738.01L329.098 741.045C329.413 739.874 329.963 738.78 330.717 737.829C331.47 736.878 332.409 736.09 333.478 735.513C335.631 734.368 338.05 733.814 340.488 733.907C346.338 733.988 351.871 736.75 357.713 737.03C359.34 737.178 360.978 736.907 362.47 736.242C363.275 735.837 363.947 735.255 364.76 734.82C366.009 734.21 367.332 733.765 368.697 733.494C372.506 732.536 376.247 731.325 379.895 729.87C380.936 729.458 382.155 728.721 382.015 727.616C381.83 726.143 379.511 725.966 378.897 724.611C378.794 724.366 378.747 724.101 378.76 723.836C378.773 723.571 378.845 723.312 378.971 723.078C379.304 723.137 379.651 723.211 380.013 723.292C386.358 724.706 389.8 725.281 391.831 730.526Z"
            fill="black" />
        <path
            d="M359.331 618.04L357.358 664.324C357.358 664.324 354.404 673.775 356.007 676.478C357.609 679.182 360.313 681.878 359.331 683.476C358.348 685.075 346.53 702.356 342.711 695.727C338.892 689.097 335.125 660.368 335.125 660.368L338.649 624.884L359.331 618.04Z"
            fill="#444053" />
        <path
            d="M367.884 502.726L373.365 510.034V573.591C373.365 573.591 374.968 590.534 373.365 594.033C371.762 597.532 363.637 604.53 363.637 604.53L356.805 569.54L358.282 532.524L367.884 502.726Z"
            fill="#444053" />
        <path opacity="0.1"
            d="M359.331 618.04L357.358 664.324C357.358 664.324 354.404 673.775 356.007 676.478C357.609 679.182 360.313 681.878 359.331 683.476C358.348 685.075 346.53 702.356 342.711 695.727C338.892 689.097 335.125 660.368 335.125 660.368L338.649 624.884L359.331 618.04Z"
            fill="black" />
        <path opacity="0.1"
            d="M367.884 502.726L373.365 510.034V573.591C373.365 573.591 374.968 590.534 373.365 594.033C371.762 597.532 363.637 604.53 363.637 604.53L356.805 569.54L358.282 532.524L367.884 502.726Z"
            fill="black" />
        <path
            d="M373.365 475.618V509.997L367.212 536.759C367.212 536.759 365.24 601.341 366.961 609.193C368.682 617.046 361.052 624.42 361.052 624.42C361.052 624.42 356.62 624.913 356.62 628.346C356.62 631.779 349.233 641.606 349.233 641.606L349.477 660.758C349.477 660.758 352.683 696.611 347.756 703.484C342.829 710.357 349.477 711.344 349.477 711.344C343.324 731.476 313.779 726.813 311.112 724.603C308.446 722.393 311.112 678.931 311.112 678.931C311.112 678.931 317.716 612.633 322.886 609.687C328.057 606.74 323.137 603.057 324.858 598.637C326.579 594.217 323.137 582.188 323.137 582.188C323.137 582.188 321.66 567.941 317.967 561.068C314.273 554.195 314.761 535.286 314.761 535.286C314.761 535.286 304.42 521.533 301.347 516.133C298.274 510.733 296.295 496.737 297.034 486.174C297.536 479.036 301.296 468.642 303.681 462.66C304.826 459.795 305.654 457.938 305.654 457.938L306.355 458.122L346.7 468.656L373.365 475.618Z"
            fill="#444053" />
        <path opacity="0.1"
            d="M377.117 311.346C373.306 312.436 369.664 316.179 366.496 320.724H365.668C361.024 320.727 356.46 319.507 352.44 317.188C348.419 314.869 345.084 311.532 342.77 307.516C341.804 305.851 341.026 304.085 340.451 302.249C342.733 296.466 344.425 291.442 344.425 291.442C344.425 291.442 388.751 308.031 377.117 311.346Z"
            fill="black" />
        <path
            d="M392.075 292.93C392.081 296.961 391.16 300.939 389.382 304.559C387.604 308.178 385.017 311.343 381.819 313.808C378.622 316.273 374.899 317.973 370.939 318.778C366.979 319.582 362.886 319.47 358.977 318.448C355.067 317.427 351.445 315.524 348.389 312.886C345.332 310.249 342.924 306.947 341.349 303.235C339.774 299.523 339.075 295.5 339.305 291.476C339.534 287.452 340.687 283.534 342.674 280.024C343.475 278.598 344.41 277.251 345.466 276.002C347.208 273.933 349.256 272.139 351.538 270.684C355.393 268.24 359.818 266.836 364.381 266.608C368.943 266.38 373.486 267.337 377.567 269.384C381.648 271.431 385.126 274.499 387.663 278.288C390.199 282.076 391.707 286.457 392.038 291C392.053 291.648 392.075 292.289 392.075 292.93Z"
            fill="#EFB7B9" />
        <path opacity="0.1"
            d="M369.886 355.972L369.797 356.783L357.514 337.63C356.228 340.657 355.512 342.683 355.512 342.683C355.512 342.683 326.335 320.775 330.952 319.302C332.503 318.809 334.542 315.494 336.558 311.317L336.809 310.786C338.951 317.151 351.398 329.873 356.575 334.97C357.174 335.56 357.669 336.046 358.053 336.4L358.843 337.136L359.257 337.549C361.14 339.486 369.088 348.031 369.886 355.972Z"
            fill="black" />
        <path
            d="M379.067 420.959L377.723 464.104L377.487 471.787C377.487 471.787 361.561 470.314 346.7 468.693C334.734 467.389 323.455 465.982 321.719 465.157C319.503 464.119 314.754 463.316 311.009 462.807C308.113 462.417 305.838 462.211 305.838 462.211C305.838 462.211 304.989 462.461 303.681 462.697C300.83 463.213 295.822 463.632 292.905 461.106C289.174 457.872 298.976 446.122 301.421 443.301L301.96 442.69L301.037 434.182L298.636 412.119C298.636 412.119 297.159 399.412 294.943 392.598C294.351 390.661 293.923 388.677 293.665 386.668C292.842 380.445 293.264 374.12 294.906 368.06C295.608 365.485 296.053 362.848 296.236 360.186C296.605 353.372 317.472 327.037 322.642 324.643C324.968 323.561 326.84 321.7 327.931 319.383C328.291 318.655 328.562 317.885 328.736 317.092C330.952 307.516 336.558 311.317 336.558 311.317C337.91 318.808 358.836 338.639 358.836 338.639L359.249 339.051C361.325 341.173 370.573 351.132 369.915 359.633C369.784 362.797 370.258 365.957 371.311 368.944C375.568 382.311 378.015 396.184 378.587 410.196L379.067 420.959Z"
            fill="#DCE6F2" />
        <path opacity="0.1"
            d="M349.418 369.725C349.418 369.725 344.248 382.248 340.37 384.274C336.492 386.3 351.265 388.547 349.418 369.725Z"
            fill="black" />
        <path opacity="0.1"
            d="M353.296 393.114C353.296 393.114 341.478 394.587 341.478 396.797C341.478 399.007 353.296 393.114 353.296 393.114Z"
            fill="black" />
        <path opacity="0.1"
            d="M365.668 407.478C365.668 407.478 348.495 443.942 343.694 445.047C338.892 446.152 365.668 407.478 365.668 407.478Z"
            fill="black" />
        <path opacity="0.1"
            d="M358.511 340.488L344.307 346.646L327.163 320.82C327.523 320.091 327.793 319.322 327.968 318.529C330.184 308.952 335.79 312.753 335.79 312.753C337.142 320.245 358.068 340.076 358.068 340.076L358.511 340.488Z"
            fill="black" />
        <path
            d="M359.249 339.015L345.045 345.173L327.901 319.346C328.262 318.618 328.532 317.849 328.707 317.055C330.923 307.479 336.529 311.28 336.529 311.28C337.881 318.772 358.806 338.602 358.806 338.602L359.249 339.015Z"
            fill="#DCE6F2" />
        <path opacity="0.1"
            d="M377.487 471.787C377.487 471.787 361.561 470.314 346.7 468.693L373.365 475.655V483.758C372.198 484.811 371.186 485.356 370.529 485.076C367.456 483.787 342.379 479.736 342.379 479.736C342.379 479.736 327.813 472.369 312.095 463.53C311.713 463.319 311.343 463.088 310.987 462.837C309.154 461.596 307.575 460.019 306.333 458.189C303.43 453.997 302.012 448.613 301.399 443.331C301.054 440.304 300.926 437.256 301.015 434.211C301.091 430.758 301.407 427.315 301.96 423.905C300.44 410.701 299.7 397.418 299.744 384.127C299.929 363.501 319.318 356.134 319.318 356.134C354.958 353.004 343.908 410.462 343.908 410.462C343.908 410.462 341.847 426.668 341.286 428.325C340.724 429.983 338.708 432.745 338.981 436.613C339.254 440.48 346.065 445.106 346.065 445.106C346.065 445.106 352.712 448.215 355.453 452.819C357.447 456.215 370.403 460.819 377.723 464.104L377.487 471.787Z"
            fill="black" />
        <path opacity="0.1"
            d="M389.423 276.577C389.436 277.79 389.184 278.992 388.684 280.098C388.306 281 387.866 281.877 387.369 282.72C386.592 284.272 385.489 285.639 384.134 286.728C382.428 287.943 380.271 288.282 378.225 288.776C376.179 289.269 374.052 290.057 372.885 291.796C372.252 292.913 371.829 294.137 371.636 295.405C371.441 296.673 370.933 297.873 370.159 298.897C369.756 299.397 369.198 299.75 368.572 299.899C367.946 300.048 367.289 299.986 366.702 299.722C366.084 299.307 365.616 298.705 365.365 298.006C364.523 296.112 364.309 294.013 363.969 291.973C363.629 289.932 363.149 287.833 361.894 286.19C360.638 284.547 358.415 283.464 356.442 284.105C355.782 284.359 355.18 284.742 354.673 285.234C354.165 285.725 353.762 286.313 353.488 286.963C352.942 288.265 352.567 289.632 352.373 291.03C351.457 296.029 350.376 300.999 349.13 305.939C349.092 306.142 349.009 306.333 348.886 306.499C348.69 306.694 348.425 306.805 348.147 306.809C346.493 307.03 344.905 305.873 343.235 305.998C343.063 306.01 342.893 306.037 342.726 306.079C340.027 301.401 338.835 296.009 339.312 290.633C339.789 285.257 341.912 280.157 345.392 276.024L345.525 275.987C346.636 275.594 347.645 274.96 348.48 274.131C349.546 273.067 350.534 271.927 351.434 270.72L352.025 269.984C353.723 267.944 355.657 266.112 357.787 264.525C358.368 264.05 359.035 263.69 359.752 263.464C360.365 263.345 360.993 263.325 361.613 263.406C364.164 263.711 366.736 263.807 369.302 263.693C371.091 263.412 372.893 263.23 374.702 263.148C379.377 263.28 383.366 266.573 386.321 270.183C387.909 272.032 389.327 274.161 389.423 276.577Z"
            fill="black" />
        <path
            d="M339.225 280.724C338.198 282.404 336.344 283.545 335.65 285.387C334.631 288.061 336.352 291.391 334.771 293.777C334.247 294.58 333.382 295.177 333.087 296.098C332.585 297.652 333.958 299.31 333.604 300.908C333.249 302.507 331.137 303.855 331.698 305.416C332.03 306.097 332.612 306.625 333.323 306.89C334.442 307.53 335.731 307.815 337.016 307.707C339.033 307.376 340.532 305.402 342.578 305.254C344.24 305.136 345.828 306.286 347.483 306.072C347.76 306.062 348.024 305.949 348.222 305.755C348.347 305.591 348.431 305.399 348.465 305.195C349.706 300.26 350.79 295.29 351.715 290.286C351.904 288.888 352.277 287.52 352.823 286.219C353.1 285.57 353.503 284.983 354.011 284.492C354.518 284.001 355.119 283.617 355.778 283.361C357.75 282.728 359.966 283.803 361.229 285.446C362.492 287.089 362.972 289.188 363.312 291.229C363.652 293.269 363.866 295.369 364.701 297.262C364.954 297.964 365.425 298.567 366.045 298.985C367.153 299.626 368.645 299.118 369.495 298.16C370.273 297.136 370.781 295.933 370.972 294.661C371.165 293.395 371.588 292.174 372.22 291.059C373.387 289.321 375.522 288.532 377.561 288.039C379.599 287.545 381.749 287.199 383.47 285.984C384.822 284.896 385.926 283.532 386.705 281.984C387.798 280.083 388.818 278.021 388.729 275.833C388.633 273.446 387.215 271.317 385.7 269.461C382.746 265.851 378.75 262.558 374.074 262.433C372.265 262.509 370.462 262.691 368.675 262.978C366.108 263.093 363.536 262.995 360.985 262.684C360.365 262.61 359.737 262.632 359.124 262.75C358.407 262.968 357.741 263.329 357.167 263.811C355.035 265.395 353.098 267.224 351.398 269.262C350.301 270.712 349.112 272.09 347.838 273.387C347.002 274.218 345.993 274.854 344.883 275.251C344.144 275.457 343.406 275.31 342.704 275.538C340.525 276.223 340.237 279.059 339.225 280.724Z"
            fill="#965D7B" />
        <path opacity="0.1"
            d="M410.356 300.753C404.447 301.836 399.55 297.07 396.839 293.593C396.007 292.537 395.249 291.425 394.571 290.264L414.855 294.079L415.674 294.234C415.674 294.234 419.405 299.103 410.356 300.753Z"
            fill="black" />
        <g opacity="0.1">
            <path opacity="0.1"
                d="M333.604 298.801C333.687 297.838 333.54 296.869 333.176 295.973C333.176 296.046 333.109 296.12 333.087 296.194C332.769 297.181 333.198 298.205 333.471 299.228C333.53 299.091 333.574 298.948 333.604 298.801V298.801Z"
                fill="black" />
            <path opacity="0.1"
                d="M335.362 286.742C335.286 287.761 335.305 288.785 335.421 289.799C335.496 288.781 335.477 287.757 335.362 286.742Z"
                fill="black" />
            <path opacity="0.1"
                d="M386.661 279.855C385.883 281.407 384.78 282.774 383.425 283.862C381.719 285.078 379.57 285.417 377.516 285.91C375.463 286.404 373.343 287.192 372.176 288.93C371.544 290.048 371.121 291.271 370.927 292.54C370.735 293.811 370.227 295.014 369.45 296.039C368.601 296.997 367.109 297.512 366.001 296.864C365.381 296.446 364.91 295.842 364.656 295.14C363.822 293.247 363.6 291.155 363.268 289.107C362.935 287.059 362.44 284.967 361.185 283.324C359.929 281.682 357.706 280.599 355.734 281.24C355.074 281.494 354.473 281.878 353.965 282.37C353.458 282.861 353.054 283.448 352.779 284.098C352.232 285.399 351.86 286.766 351.671 288.164C350.75 293.168 349.667 298.138 348.421 303.074C348.386 303.277 348.303 303.47 348.177 303.634C347.979 303.828 347.716 303.941 347.439 303.95C345.784 304.164 344.196 303.015 342.534 303.133C340.488 303.28 338.988 305.254 336.972 305.578C335.686 305.693 334.395 305.408 333.279 304.761C332.765 304.54 332.305 304.214 331.927 303.803C331.754 304.05 331.64 304.333 331.592 304.63C331.545 304.927 331.566 305.231 331.654 305.52C331.979 306.205 332.563 306.735 333.279 306.993C334.395 307.64 335.686 307.926 336.972 307.81C338.988 307.486 340.488 305.512 342.534 305.365C344.196 305.247 345.784 306.396 347.439 306.183C347.716 306.173 347.979 306.06 348.177 305.866C348.303 305.702 348.386 305.509 348.421 305.306C349.662 300.395 350.745 295.425 351.671 290.396C351.86 288.998 352.232 287.631 352.779 286.33C353.054 285.68 353.458 285.093 353.965 284.602C354.473 284.111 355.074 283.726 355.734 283.472C357.706 282.831 359.922 283.914 361.185 285.556C362.448 287.199 362.928 289.299 363.268 291.339C363.607 293.38 363.822 295.479 364.656 297.372C364.91 298.074 365.381 298.678 366.001 299.096C367.109 299.737 368.601 299.229 369.45 298.271C370.227 297.246 370.735 296.043 370.927 294.772C371.121 293.503 371.544 292.28 372.176 291.162C373.343 289.424 375.478 288.643 377.516 288.142C379.555 287.641 381.704 287.31 383.425 286.094C384.78 285.006 385.883 283.639 386.661 282.087C387.754 280.194 388.773 278.131 388.684 275.943C388.67 275.662 388.64 275.382 388.596 275.104C388.239 276.79 387.584 278.399 386.661 279.855V279.855Z"
                fill="black" />
        </g>
        <path opacity="0.1"
            d="M388.714 280.076C390.608 283.435 391.731 287.171 392.001 291.015C385.42 287.332 379.23 283.288 376.105 281.881C370.661 279.428 350.304 279.796 342.652 280.024C343.453 278.598 344.388 277.252 345.444 276.002C347.193 273.931 349.248 272.138 351.538 270.684C354.571 268.764 357.965 267.481 361.512 266.914C365.059 266.347 368.685 266.507 372.168 267.384C375.651 268.262 378.918 269.839 381.769 272.019C384.621 274.198 386.996 276.935 388.751 280.061L388.714 280.076Z"
            fill="black" />
        <path opacity="0.1"
            d="M412.203 297.63C408.65 298.72 402.852 296.613 396.839 293.593C396.007 292.537 395.249 291.425 394.571 290.264L414.855 294.079C416.199 294.993 416.539 296.297 412.203 297.63Z"
            fill="black" />
        <path
            d="M367.241 254.536C367.241 254.536 347.852 253.432 342.401 263.929L341.522 273.232L340.045 273.07L339.749 279.398C339.749 279.398 369.384 278.109 376.127 281.144C382.871 284.179 403.826 299.472 412.225 296.893C420.623 294.315 411.486 291.921 411.486 291.921C411.486 291.921 399.926 287.037 399.926 283.207C399.926 279.376 397.06 259.14 367.241 254.536Z"
            fill="#444053" />
        <path opacity="0.1"
            d="M329.844 599.433C329.844 599.433 342.217 611.403 347.572 610.482C347.572 610.482 332.429 609.193 329.844 599.433Z"
            fill="black" />
        <path opacity="0.1"
            d="M327.259 604.979C327.259 604.979 328.367 611.138 331.321 610.534C334.276 609.93 327.259 604.979 327.259 604.979Z"
            fill="black" />
        <path opacity="0.1"
            d="M346.648 707.904C346.648 707.904 329.083 721.531 332.045 721.9C335.007 722.268 346.648 707.904 346.648 707.904Z"
            fill="black" />
        <path d="M370.145 437.43L427.02 428.2V481.901L372.981 479.08L370.145 437.43Z" fill="#F79E44" />
        <path opacity="0.05" d="M370.145 437.43L427.02 428.2V481.901L372.981 479.08L370.145 437.43Z" fill="black" />
        <path d="M427.02 428.2L495.226 433.29L491.452 480.023L427.02 481.901V428.2Z" fill="#F79E44" />
        <path opacity="0.1" d="M427.02 428.2L495.226 433.29L491.452 480.023L427.02 481.901V428.2Z" fill="black" />
        <path d="M447.99 411.81L427.02 428.2L495.226 433.29L506.373 416.517L447.99 411.81Z" fill="#F79E44" />
        <path d="M349.551 419.53L400.754 413.313L427.02 428.2L370.144 437.43L349.551 419.53Z" fill="#F79E44" />
        <path
            d="M439.488 442.145V515.566L412.846 512.84L401.256 511.662L397.726 511.293L386.144 510.107L370.145 508.472V437.43L427.013 441.29L439.488 442.145Z"
            fill="#F79E44" />
        <path d="M495.226 433.29V504.892L473.872 508.98L463.487 510.969L439.488 515.566V442.145L495.226 433.29Z"
            fill="#F79E44" />
        <path opacity="0.05"
            d="M495.226 433.29V504.892L473.872 508.98L463.487 510.969L439.488 515.566V442.145L495.226 433.29Z"
            fill="black" />
        <path d="M349.551 452.885L370.144 437.43L439.488 442.145L429.28 459.294L349.551 452.885Z" fill="#F79E44" />
        <path opacity="0.1" d="M349.551 452.885L370.144 437.43L439.488 442.145L429.28 459.294L349.551 452.885Z"
            fill="white" />
        <path d="M495.226 433.29L439.488 442.145L457.629 458.351L517.334 448.362L495.226 433.29Z" fill="#F79E44" />
        <path opacity="0.1" d="M495.226 433.29L439.488 442.145L457.629 458.351L517.334 448.362L495.226 433.29Z"
            fill="white" />
        <path opacity="0.1" d="M473.872 508.98L463.486 510.969V495.669L473.214 493.224L473.872 508.98Z" fill="white" />
        <path opacity="0.1" d="M412.845 502.719V512.84L401.256 511.662V502.719H412.845Z" fill="white" />
        <path opacity="0.1" d="M397.725 505.909V511.294L386.143 510.108V505.909H397.725Z" fill="white" />
        <path opacity="0.1"
            d="M432.516 497.349C424.575 507.478 398.353 500.479 398.353 500.479L378.868 480.207L376.224 477.459L381.394 467.883C381.394 467.883 382.871 468.369 385.339 469.224C398.398 473.776 439.2 488.826 432.516 497.349Z"
            fill="black" />
        <path
            d="M431.777 495.875C423.837 506.004 397.615 499.006 397.615 499.006L378.129 478.734L375.485 475.986L380.655 466.41C380.655 466.41 382.133 466.896 384.6 467.75C397.659 472.303 438.462 487.352 431.777 495.875Z"
            fill="#EFB7B9" />
        <path opacity="0.1"
            d="M384.57 467.75C383.492 470.844 380.751 475.426 378.1 478.734L375.455 475.986L380.626 466.41C380.626 466.41 382.11 466.896 384.57 467.75Z"
            fill="black" />
        <path
            d="M320.057 353.188C320.057 353.188 300.668 360.554 300.483 381.18C300.439 394.472 301.179 407.754 302.699 420.959C302.699 420.959 297.159 451.714 312.855 460.554C328.551 469.393 343.14 476.76 343.14 476.76C343.14 476.76 368.217 480.811 371.297 482.1C374.377 483.389 385.08 466.815 383.418 464.053C381.756 461.29 358.924 454.476 356.214 449.872C353.503 445.268 346.825 442.167 346.825 442.167C346.825 442.167 340.015 437.533 339.742 433.666C339.469 429.799 341.478 427.036 342.046 425.379C342.615 423.721 344.676 407.515 344.676 407.515C344.676 407.515 355.697 350.02 320.057 353.188Z"
            fill="#DCE6F2" />
        <path opacity="0.1"
            d="M328.921 421.475C328.921 421.475 302.699 424.421 304.73 433.629C304.73 433.629 314.695 424.34 328.921 421.475Z"
            fill="black" />
        <path opacity="0.1"
            d="M328.921 425.158C328.921 425.158 314.037 436.023 316.77 436.76C319.503 437.496 328.921 425.158 328.921 425.158Z"
            fill="black" />
        <path opacity="0.1"
            d="M335.568 429.578C335.568 429.578 331.321 437.194 333.722 436.797C336.122 436.399 335.568 429.578 335.568 429.578Z"
            fill="black" />
        <path
            d="M608.586 264.363C608.586 264.363 580.517 262.676 583.797 282.315C583.797 282.315 583.139 285.785 586.293 287.361C586.293 287.361 586.345 285.888 589.174 286.396C590.182 286.565 591.206 286.615 592.225 286.543C593.606 286.452 594.919 285.911 595.962 285.004V285.004C595.962 285.004 603.858 281.755 606.931 268.879C606.931 268.879 609.206 266.065 609.147 265.343L604.405 267.369C604.405 267.369 606.023 270.779 604.745 273.615C604.745 273.615 604.597 267.494 603.681 267.634C603.497 267.634 601.222 268.82 601.222 268.82C601.222 268.82 604.006 274.757 601.901 279.081C601.901 279.081 602.699 271.759 600.35 269.247L597.011 271.192C597.011 271.192 600.269 277.328 598.06 282.337C598.06 282.337 598.629 274.654 596.31 271.663L593.281 274.013C593.281 274.013 596.346 280.068 594.478 284.223C594.478 284.223 594.234 275.28 592.624 274.603C592.624 274.603 589.979 276.93 589.58 277.888C589.58 277.888 591.671 282.308 590.371 284.599C590.371 284.599 589.573 278.639 588.894 278.61C588.894 278.61 586.257 282.558 585.983 285.24C586.111 282.74 586.893 280.317 588.251 278.212C586.731 278.499 585.329 279.224 584.218 280.297C584.218 280.297 584.624 277.505 588.901 277.262C588.901 277.262 591.117 274.264 591.663 274.079C591.663 274.079 587.409 273.726 584.831 274.868C584.831 274.868 587.099 272.238 592.446 273.394L595.401 270.963C595.401 270.963 589.802 270.227 587.424 271.045C587.424 271.045 590.157 268.717 596.206 270.411L599.456 268.474C599.456 268.474 594.685 267.442 591.841 267.818C591.841 267.818 594.84 266.205 600.409 267.951L602.736 266.912C602.736 266.912 599.235 266.227 598.215 266.116C597.196 266.006 597.137 265.726 597.137 265.726C599.352 265.358 601.626 265.613 603.703 266.463C603.703 266.463 608.689 264.673 608.586 264.363Z"
            fill="#F79E44" />
        <path opacity="0.1"
            d="M693.87 362.587C693.87 362.587 665.802 360.9 669.081 380.539C669.081 380.539 668.424 384.009 671.578 385.585C671.578 385.585 671.629 384.112 674.466 384.62C675.473 384.789 676.497 384.839 677.516 384.768C678.881 384.669 680.177 384.131 681.21 383.235V383.235C681.21 383.235 689.113 379.979 692.186 367.103C692.186 367.103 694.453 364.296 694.365 363.574L689.623 365.593C689.623 365.593 691.24 369.003 689.97 371.84C689.97 371.84 689.815 365.718 688.906 365.858C688.722 365.858 686.439 367.044 686.439 367.044C686.439 367.044 689.231 372.989 687.126 377.305C687.126 377.305 687.924 369.983 685.568 367.471L682.266 369.394C682.266 369.394 685.523 375.53 683.315 380.539C683.315 380.539 683.883 372.856 681.564 369.865L678.543 372.223C678.543 372.223 681.601 378.27 679.74 382.425C679.74 382.425 679.496 373.482 677.886 372.805C677.886 372.805 675.241 375.132 674.835 376.09C674.835 376.09 676.933 380.51 675.633 382.801C675.633 382.801 674.835 376.841 674.156 376.812C674.156 376.812 671.519 380.76 671.245 383.442C671.377 380.942 672.161 378.519 673.52 376.414C671.999 376.702 670.594 377.426 669.48 378.499C669.48 378.499 669.894 375.707 674.17 375.464C674.17 375.464 676.349 372.466 676.933 372.281C676.933 372.281 672.678 371.928 670.1 373.07C670.1 373.07 672.368 370.44 677.708 371.633L680.663 369.202C680.663 369.202 675.057 368.466 672.686 369.283C672.686 369.283 675.419 366.956 681.468 368.65L684.718 366.712C684.718 366.712 679.939 365.689 677.095 366.057C677.095 366.057 680.102 364.444 685.671 366.189L687.998 365.151C687.998 365.151 684.497 364.466 683.47 364.355C682.443 364.245 682.391 363.965 682.391 363.965C684.609 363.597 686.885 363.852 688.965 364.701C688.965 364.701 693.959 362.897 693.87 362.587Z"
            fill="#F79E44" />
        <path opacity="0.1"
            d="M523.354 345.151C523.354 345.151 529.817 317.829 509.844 317.733C509.844 317.733 506.527 316.495 504.437 319.324C504.437 319.324 505.863 319.626 504.895 322.322C504.56 323.276 504.337 324.264 504.23 325.269C504.087 326.638 504.396 328.017 505.109 329.195V329.195C505.109 329.195 506.978 337.519 519.143 342.735C519.143 342.735 521.537 345.446 522.261 345.475L521.079 340.473C521.079 340.473 517.43 341.482 514.845 339.737C514.845 339.737 520.924 340.628 520.931 339.737C520.931 339.552 520.192 337.114 520.192 337.114C520.192 337.114 513.847 338.838 509.933 336.031C509.933 336.031 517.031 338.064 519.919 336.186L518.589 332.562C518.589 332.562 511.942 334.72 507.392 331.692C507.392 331.692 514.889 333.563 518.242 331.796L516.433 328.422C516.433 328.422 509.933 330.396 506.143 327.854C506.143 327.854 515.007 329.136 515.967 327.678C515.967 327.678 514.121 324.68 513.242 324.12C513.242 324.12 508.544 325.431 506.476 323.759C506.476 323.759 512.496 323.987 512.636 323.354C512.636 323.354 509.187 320.09 506.557 319.354C509.007 319.91 511.271 321.093 513.124 322.786C513.096 321.243 512.619 319.74 511.75 318.462C511.75 318.462 514.438 319.346 513.966 323.619C513.966 323.619 516.551 326.271 516.632 326.875C516.632 326.875 517.703 322.757 517.016 320.024C517.016 320.024 519.232 322.705 517.142 327.751L519.033 331.103C519.033 331.103 520.746 325.726 520.311 323.25C520.311 323.25 522.15 326.33 519.439 331.987L520.805 335.516C520.805 335.516 522.63 330.993 522.748 328.149C522.748 328.149 523.834 331.376 521.153 336.554L521.788 339.015C521.788 339.015 523.058 335.692 523.339 334.705C523.62 333.718 523.908 333.711 523.908 333.711C523.896 335.952 523.26 338.146 522.068 340.046C522.068 340.046 523.036 345.188 523.354 345.151Z"
            fill="#F79E44" />
        <path opacity="0.1"
            d="M461.884 354.462C461.884 354.462 439.341 337.645 431.282 355.862C431.282 355.862 428.822 358.403 430.588 361.446C430.588 361.446 431.43 360.26 433.542 362.226C434.29 362.921 435.119 363.524 436.009 364.024C437.216 364.694 438.608 364.952 439.976 364.76V364.76C439.976 364.76 448.367 366.374 458.028 357.306C458.028 357.306 461.478 356.201 461.803 355.552L456.713 354.661C456.713 354.661 456.182 358.396 453.559 360.068C453.559 360.068 456.802 354.867 455.96 354.492C455.79 354.411 453.249 354.123 453.249 354.123C453.249 354.123 452.304 360.62 448.167 363.074C448.167 363.074 452.873 357.394 452.289 354.005L448.426 353.799C448.426 353.799 447.768 360.716 443.159 363.692C443.159 363.692 447.864 357.586 447.591 353.814L443.765 354.123C443.765 354.123 442.989 360.849 439.141 363.294C439.141 363.294 443.861 355.692 442.893 354.249C442.893 354.249 439.4 354.742 438.535 355.317C438.535 355.317 437.863 360.134 435.5 361.357C435.5 361.357 438.122 355.943 437.59 355.567C437.59 355.567 433.21 357.416 431.489 359.523C432.978 357.506 434.969 355.911 437.265 354.897C435.836 354.305 434.265 354.141 432.744 354.425C432.744 354.425 434.621 352.319 438.329 354.462C438.329 354.462 441.8 353.158 442.391 353.32C442.391 353.32 439.03 350.691 436.246 350.234C436.246 350.234 439.599 349.276 443.403 353.18L447.237 352.79C447.237 352.79 442.975 349.107 440.53 348.488C440.53 348.488 444.097 348.039 448.212 352.768L451.994 352.937C451.994 352.937 448.574 349.46 445.996 348.208C445.996 348.208 449.386 348.503 453.079 353.018L455.598 353.423C455.598 353.423 453.05 350.934 452.252 350.285C451.454 349.637 451.565 349.365 451.565 349.365C453.62 350.272 455.382 351.731 456.654 353.578C456.654 353.578 461.788 354.764 461.884 354.462Z"
            fill="#F79E44" />
        <path opacity="0.1"
            d="M536.938 198.213C536.938 198.213 514.394 181.388 506.335 199.612C506.335 199.612 503.876 202.154 505.641 205.196C505.641 205.196 506.483 204.01 508.596 205.977C509.348 206.668 510.178 207.268 511.07 207.767C512.276 208.438 513.669 208.696 515.037 208.504V208.504C515.037 208.504 523.428 210.117 533.089 201.042C533.089 201.042 536.539 199.944 536.856 199.288L531.767 198.412C531.767 198.412 531.243 202.147 528.613 203.819C528.613 203.819 531.863 198.618 531.021 198.242C530.851 198.161 528.31 197.874 528.31 197.874C528.31 197.874 527.335 204.386 523.199 206.824C523.199 206.824 527.897 201.145 527.32 197.756L523.457 197.55C523.457 197.55 522.792 204.467 518.191 207.436C518.191 207.436 522.896 201.329 522.623 197.557L518.804 197.867C518.804 197.867 518.021 204.6 514.172 207.045C514.172 207.045 518.9 199.443 517.932 197.999C517.932 197.999 514.438 198.493 513.574 199.067C513.574 199.067 512.902 203.885 510.538 205.108C510.538 205.108 513.161 199.694 512.629 199.31C512.629 199.31 508.249 201.167 506.528 203.274C508.014 201.254 510.006 199.659 512.304 198.647C510.873 198.051 509.299 197.887 507.776 198.176C507.776 198.176 509.659 196.069 513.367 198.213C513.367 198.213 516.839 196.902 517.43 197.071C517.43 197.071 514.069 194.441 511.284 193.977C511.284 193.977 514.63 193.027 518.434 196.924L522.268 196.533C522.268 196.533 518.013 192.85 515.561 192.224C515.561 192.224 519.129 191.782 523.25 196.511L527.032 196.673C527.032 196.673 523.612 193.196 521.027 191.951C521.027 191.951 524.425 192.246 528.118 196.762L530.63 197.167C530.63 197.167 528.074 194.706 527.276 194.073C526.478 193.439 526.589 193.159 526.589 193.159C528.645 194.066 530.407 195.525 531.678 197.373C531.678 197.373 536.812 198.493 536.938 198.213Z"
            fill="#F79E44" />
        <path opacity="0.1"
            d="M623.078 219.524C623.078 219.524 614.067 192.924 597.07 203.377C597.07 203.377 593.599 204.113 593.325 207.583C593.325 207.583 594.692 207.082 595.298 209.881C595.523 210.877 595.862 211.843 596.31 212.761C596.92 213.997 597.915 215.002 599.146 215.627V215.627C599.146 215.627 605.144 221.704 618.262 219.693C618.262 219.693 621.726 220.739 622.362 220.378L618.668 216.761C618.668 216.761 616.113 219.538 612.996 219.428C612.996 219.428 618.631 216.982 618.166 216.194C618.07 216.039 616.142 214.367 616.142 214.367C616.142 214.367 611.666 219.178 606.865 218.861C606.865 218.861 613.963 216.842 615.411 213.704L612.353 211.354C612.353 211.354 607.877 216.673 602.389 216.511C602.389 216.511 609.775 214.146 611.644 210.876L608.32 208.968C608.32 208.968 603.888 214.073 599.294 213.911C599.294 213.911 607.507 210.323 607.53 208.585C607.53 208.585 604.376 207.016 603.334 207.001C603.334 207.001 600.04 210.588 597.425 210.264C597.425 210.264 602.655 207.281 602.433 206.669C602.433 206.669 597.779 205.719 595.157 206.485C597.529 205.662 600.075 205.471 602.544 205.933C601.701 204.635 600.497 203.611 599.079 202.986C599.079 202.986 601.827 202.316 603.666 206.176C603.666 206.176 607.271 207.067 607.655 207.531C607.655 207.531 606.385 203.472 604.353 201.513C604.353 201.513 607.655 202.625 608.556 208.01L611.939 209.852C611.939 209.852 610.543 204.393 608.859 202.485C608.859 202.485 612.057 204.135 612.752 210.36L615.78 212.636C615.78 212.636 614.938 207.833 613.52 205.343C613.52 205.343 616.15 207.509 616.622 213.321L618.461 215.074C618.461 215.074 617.782 211.583 617.501 210.596C617.221 209.609 617.45 209.542 617.45 209.542C618.624 211.453 619.245 213.651 619.244 215.892C619.244 215.892 622.819 219.715 623.078 219.524Z"
            fill="#F79E44" />
        <path opacity="0.1"
            d="M564.267 220.835C564.267 220.835 536.273 217.726 538.584 237.535C538.584 237.535 537.75 240.967 540.8 242.691C540.8 242.691 540.926 241.218 543.755 241.881C544.755 242.095 545.776 242.197 546.798 242.183C548.179 242.158 549.515 241.685 550.602 240.835V240.835C550.602 240.835 558.661 237.984 562.42 225.277C562.42 225.277 564.828 222.588 564.777 221.859L559.939 223.642C559.939 223.642 561.416 227.126 559.939 229.896C559.939 229.896 560.094 223.774 559.2 223.87C559.015 223.87 556.681 224.931 556.681 224.931C556.681 224.931 559.163 231.008 556.844 235.244C556.844 235.244 558.011 227.966 555.787 225.343L552.353 227.111C552.353 227.111 555.307 233.409 552.833 238.301C552.833 238.301 553.793 230.654 551.629 227.553L548.49 229.763C548.49 229.763 551.237 235.958 549.162 240.017C549.162 240.017 549.376 231.074 547.803 230.316C547.803 230.316 545.04 232.526 544.59 233.439C544.59 233.439 546.458 237.932 545.048 240.179C545.048 240.179 544.553 234.19 543.903 234.131C543.903 234.131 541.066 237.94 540.653 240.629C540.909 238.136 541.816 235.753 543.282 233.719C541.75 233.93 540.312 234.583 539.146 235.597C539.146 235.597 539.692 232.835 543.977 232.805C543.977 232.805 546.303 229.925 546.931 229.77C546.931 229.77 542.699 229.203 540.062 230.212C540.062 230.212 542.462 227.693 547.736 229.159L550.846 226.883C550.846 226.883 545.225 225.748 542.846 226.485C542.846 226.485 545.698 224.275 551.651 226.301L554.997 224.526C554.997 224.526 550.277 223.259 547.419 223.487C547.419 223.487 550.499 222.014 555.972 224.054L558.351 223.133C558.351 223.133 554.886 222.271 553.867 222.109C552.848 221.947 552.811 221.667 552.811 221.667C555.044 221.412 557.304 221.779 559.34 222.728C559.34 222.728 564.319 221.144 564.267 220.835Z"
            fill="#F79E44" />
        <path opacity="0.1"
            d="M809.202 437.533C809.202 437.533 781.222 434.425 783.534 454.211C783.534 454.211 782.699 457.644 785.75 459.367C785.75 459.367 785.875 457.894 788.704 458.55C789.703 458.772 790.724 458.873 791.747 458.852C793.129 458.831 794.466 458.357 795.551 457.504V457.504C795.551 457.504 803.61 454.653 807.333 441.953C807.333 441.953 809.741 439.257 809.689 438.535L804.851 440.31C804.851 440.31 806.328 443.802 804.851 446.572C804.851 446.572 805.006 440.443 804.112 440.546C803.928 440.546 801.594 441.6 801.594 441.6C801.594 441.6 804.075 447.677 801.756 451.913C801.756 451.913 802.923 444.642 800.7 442.012L797.265 443.787C797.265 443.787 800.22 450.086 797.753 454.977C797.753 454.977 798.705 447.331 796.541 444.222L793.402 446.432C793.402 446.432 796.15 452.627 794.074 456.679C794.074 456.679 794.288 447.736 792.715 446.984C792.715 446.984 789.96 449.194 789.502 450.108C789.502 450.108 791.378 454.601 789.96 456.848C789.96 456.848 789.465 450.859 788.815 450.8C788.815 450.8 785.979 454.609 785.565 457.297C785.821 454.805 786.728 452.422 788.194 450.388C786.661 450.595 785.222 451.248 784.058 452.266C784.058 452.266 784.605 449.496 788.889 449.467C788.889 449.467 791.223 446.587 791.843 446.439C791.843 446.439 787.611 445.865 784.974 446.874C784.974 446.874 787.375 444.362 792.656 445.828L795.758 443.552C795.758 443.552 790.204 442.506 787.788 443.228C787.788 443.228 790.639 441.018 796.593 443.036L799.939 441.268C799.939 441.268 795.219 440.001 792.36 440.229C792.36 440.229 795.441 438.756 800.914 440.797L803.292 439.868C803.292 439.868 799.828 439.007 798.809 438.852C797.79 438.697 797.753 438.41 797.753 438.41C799.985 438.15 802.246 438.514 804.282 439.463C804.282 439.463 809.275 437.85 809.202 437.533Z"
            fill="#F79E44" />
        <path opacity="0.1"
            d="M851.976 463.596C851.976 463.596 823.996 460.494 826.308 480.273C826.308 480.273 825.481 483.706 828.524 485.43C828.524 485.43 828.65 483.957 831.479 484.62C832.476 484.836 833.494 484.935 834.515 484.914C835.889 484.886 837.219 484.416 838.304 483.574V483.574C838.304 483.574 846.355 480.723 850.078 468.016C850.078 468.016 852.493 465.327 852.434 464.598L847.596 466.373C847.596 466.373 849.073 469.865 847.596 472.634C847.596 472.634 847.751 466.513 846.857 466.609C846.673 466.609 844.338 467.662 844.338 467.662C844.338 467.662 846.82 473.739 844.501 477.975C844.501 477.975 845.668 470.704 843.445 468.082L840.01 469.85C840.01 469.85 842.965 476.148 840.497 481.039C840.497 481.039 841.45 473.393 839.286 470.292L836.147 472.502C836.147 472.502 838.895 478.697 836.826 482.756C836.826 482.756 837.033 473.806 835.46 473.054C835.46 473.054 832.705 475.264 832.247 476.178C832.247 476.178 834.123 480.671 832.705 482.918C832.705 482.918 832.21 476.929 831.56 476.87C831.56 476.87 828.724 480.679 828.317 483.367C828.573 480.876 829.477 478.494 830.94 476.458C829.407 476.669 827.969 477.322 826.803 478.336C826.803 478.336 827.357 475.566 831.641 475.544C831.641 475.544 833.968 472.664 834.596 472.509C834.596 472.509 830.363 471.942 827.726 472.951C827.726 472.951 830.127 470.432 835.408 471.898L838.511 469.621C838.511 469.621 832.956 468.575 830.541 469.297C830.541 469.297 833.392 467.087 839.345 469.113L842.691 467.338C842.691 467.338 837.971 466.071 835.113 466.299C835.113 466.299 838.193 464.826 843.666 466.866L846.045 465.946C846.045 465.946 842.581 465.084 841.569 464.922C840.557 464.76 840.505 464.48 840.505 464.48C842.738 464.224 844.998 464.591 847.034 465.54C847.034 465.54 852.05 463.912 851.976 463.596Z"
            fill="#F79E44" />
        <path opacity="0.1"
            d="M757.009 244.069C757.009 244.069 734.465 227.251 726.407 245.468C726.407 245.468 723.947 248.01 725.712 251.052C725.712 251.052 726.555 249.866 728.667 251.833C729.415 252.527 730.243 253.13 731.134 253.63C732.341 254.3 733.733 254.558 735.101 254.367V254.367C735.101 254.367 743.492 255.98 753.16 246.912C753.16 246.912 756.602 245.807 756.927 245.159L751.853 244.245C751.853 244.245 751.321 247.98 748.699 249.652C748.699 249.652 751.942 244.452 751.1 244.076C750.93 243.995 748.396 243.708 748.396 243.708C748.396 243.708 747.443 250.205 743.307 252.658C743.307 252.658 748.012 246.978 747.428 243.59L743.565 243.384C743.565 243.384 742.908 250.301 738.299 253.277C738.299 253.277 743.011 247.17 742.731 243.398L738.905 243.708C738.905 243.708 738.166 250.433 734.281 252.879C734.281 252.879 739.008 245.277 738.033 243.833C738.033 243.833 734.539 244.326 733.675 244.901C733.675 244.901 733.01 249.719 730.647 250.941C730.647 250.941 733.261 245.527 732.73 245.151C732.73 245.151 728.349 247 726.628 249.107C728.117 247.09 730.108 245.495 732.405 244.481C730.976 243.889 729.405 243.725 727.884 244.01C727.884 244.01 729.768 241.903 733.476 244.046C733.476 244.046 736.94 242.743 737.531 242.905C737.531 242.905 734.17 240.275 731.385 239.818C731.385 239.818 734.739 238.861 738.543 242.765L742.376 242.374C742.376 242.374 738.122 238.691 735.669 238.072C735.669 238.072 739.237 237.623 743.351 242.352L747.14 242.522C747.14 242.522 743.713 239.045 741.135 237.792C741.135 237.792 744.533 238.087 748.219 242.603L750.738 243.008C750.738 243.008 748.189 240.518 747.392 239.87C746.594 239.221 746.712 239.008 746.712 239.008C748.764 239.917 750.523 241.375 751.794 243.221C751.794 243.221 756.913 244.371 757.009 244.069Z"
            fill="#F79E44" />
        <path opacity="0.1"
            d="M774.426 365.482C774.426 365.482 766.656 338.499 749.179 348.186C749.179 348.186 745.678 348.724 745.242 352.215C745.242 352.215 746.631 351.781 747.111 354.602C747.289 355.616 747.587 356.605 747.998 357.549C748.545 358.818 749.495 359.874 750.701 360.554V360.554C750.701 360.554 756.418 366.889 769.61 365.475C769.61 365.475 773.023 366.668 773.673 366.344L770.179 362.558C770.179 362.558 767.498 365.224 764.395 364.974C764.395 364.974 770.127 362.764 769.684 361.976C769.596 361.814 767.749 360.053 767.749 360.053C767.749 360.053 763.066 364.665 758.28 364.127C758.28 364.127 765.467 362.433 767.047 359.383L764.093 356.893C764.093 356.893 759.38 362.005 753.907 361.607C753.907 361.607 761.352 359.567 763.406 356.392L760.17 354.337C760.17 354.337 755.48 359.236 750.93 358.867C750.93 358.867 759.299 355.648 759.402 353.917C759.402 353.917 756.315 352.208 755.273 352.149C755.273 352.149 751.824 355.582 749.202 355.14C749.202 355.14 754.564 352.392 754.372 351.773C754.372 351.773 749.763 350.617 747.111 351.258C749.513 350.547 752.059 350.474 754.498 351.044C753.716 349.711 752.561 348.636 751.174 347.95C751.174 347.95 753.951 347.398 755.606 351.339C755.606 351.339 759.158 352.385 759.528 352.871C759.528 352.871 758.442 348.753 756.499 346.713C756.499 346.713 759.749 347.965 760.407 353.387L763.701 355.383C763.701 355.383 762.549 349.858 760.953 347.913C760.953 347.913 764.07 349.703 764.492 355.95L767.446 358.359C767.446 358.359 766.818 353.527 765.518 350.992C765.518 350.992 768.052 353.276 768.259 359.096L770.017 360.937C770.017 360.937 769.5 357.416 769.278 356.414C769.056 355.412 769.278 355.272 769.278 355.272C770.371 357.232 770.895 359.456 770.792 361.696C770.792 361.696 774.16 365.659 774.426 365.482Z"
            fill="#F79E44" />
        <path opacity="0.1"
            d="M601.273 426.285C601.273 426.285 586.183 402.58 572.171 416.767C572.171 416.767 568.965 418.241 569.526 421.74C569.526 421.74 570.745 420.929 572.001 423.507C572.452 424.421 573.012 425.277 573.67 426.056C574.551 427.12 575.758 427.865 577.105 428.178V428.178C577.105 428.178 584.38 432.657 596.642 427.588C596.642 427.588 600.254 427.78 600.786 427.286L596.354 424.635C596.354 424.635 594.529 427.949 591.479 428.576C591.479 428.576 596.369 424.892 595.711 424.215C595.586 424.082 593.311 422.918 593.311 422.918C593.311 422.918 590.112 428.649 585.37 429.482C585.37 429.482 591.789 425.835 592.454 422.461L588.916 420.907C588.916 420.907 585.835 427.132 580.473 428.274C580.473 428.274 587.047 424.229 588.118 420.605L584.425 419.544C584.425 419.544 581.308 425.563 576.839 426.484C576.839 426.484 583.959 421.047 583.568 419.353C583.568 419.353 580.126 418.579 579.136 418.815C579.136 418.815 576.794 423.08 574.15 423.39C574.15 423.39 578.523 419.25 578.161 418.705C578.161 418.705 573.411 418.889 571.048 420.252C573.156 418.889 575.586 418.102 578.094 417.968C576.971 416.908 575.562 416.199 574.039 415.927C574.039 415.927 576.543 414.624 579.21 417.938C579.21 417.938 582.903 417.938 583.413 418.307C583.413 418.307 581.197 414.624 578.767 413.246C578.767 413.246 582.238 413.541 584.395 418.557L588.125 419.544C588.125 419.544 585.459 414.572 583.383 413.15C583.383 413.15 586.877 413.99 589.041 419.876L592.528 421.349C592.528 421.349 590.563 416.892 588.591 414.808C588.591 414.808 591.663 416.281 593.503 421.813L595.719 423.088C595.719 423.088 594.241 419.854 593.717 418.962C593.192 418.071 593.399 417.865 593.399 417.865C594.998 419.439 596.125 421.426 596.657 423.603C596.657 423.603 601.074 426.535 601.273 426.285Z"
            fill="#F79E44" />
        <path
            d="M700.451 305.166C700.451 305.166 686.099 281.011 671.644 294.757C671.644 294.757 668.394 296.157 668.852 299.649C668.852 299.649 670.085 298.868 671.267 301.483C671.69 302.412 672.223 303.288 672.855 304.091C673.703 305.177 674.887 305.954 676.223 306.3V306.3C676.223 306.3 683.351 311 695.768 306.3C695.768 306.3 699.372 306.602 699.919 306.124L695.583 303.339C695.583 303.339 693.663 306.588 690.59 307.125C690.59 307.125 695.591 303.567 694.963 302.897C694.83 302.757 692.599 301.52 692.599 301.52C692.599 301.52 689.223 307.155 684.474 307.84C684.474 307.84 691.004 304.393 691.764 301.048L688.278 299.413C688.278 299.413 685.006 305.549 679.606 306.529C679.606 306.529 686.306 302.691 687.488 299.103L683.839 297.925C683.839 297.925 680.53 303.818 676.039 304.628C676.039 304.628 683.322 299.413 682.982 297.711C682.982 297.711 679.569 296.827 678.55 297.033C678.55 297.033 676.076 301.225 673.424 301.453C673.424 301.453 677.922 297.461 677.582 296.901C677.582 296.901 672.826 296.938 670.425 298.227C672.575 296.933 675.027 296.222 677.538 296.164C676.446 295.069 675.057 294.316 673.542 293.998C673.542 293.998 676.09 292.768 678.713 296.164C678.713 296.164 682.406 296.289 682.901 296.665C682.901 296.665 680.81 292.982 678.417 291.464C678.417 291.464 681.874 291.862 683.876 296.945L687.569 298.05C687.569 298.05 685.065 292.997 683.026 291.509C683.026 291.509 686.498 292.459 688.477 298.404L691.912 300.002C691.912 300.002 690.088 295.487 688.219 293.372C688.219 293.372 691.24 294.941 692.917 300.525L695.081 301.866C695.081 301.866 693.692 298.588 693.205 297.682C692.717 296.776 692.924 296.577 692.924 296.577C694.472 298.2 695.539 300.219 696.004 302.411C696.004 302.411 700.237 305.409 700.451 305.166Z"
            fill="#F79E44" />
        <path
            d="M609.649 355.958C609.649 355.958 610.388 327.892 590.836 331.847C590.836 331.847 587.335 331.31 585.858 334.507C585.858 334.507 587.335 334.507 586.921 337.343C586.786 338.354 586.771 339.378 586.877 340.392C587.011 341.769 587.595 343.063 588.539 344.076C588.539 344.076 592.062 351.84 605.07 354.477C605.07 354.477 607.958 356.65 608.682 356.532L606.466 351.877C606.466 351.877 603.105 353.6 600.217 352.429C600.217 352.429 606.348 352.068 606.178 351.169C606.178 350.985 604.907 348.746 604.907 348.746C604.907 348.746 599.042 351.729 594.648 349.77C594.648 349.77 602.034 350.322 604.449 347.899L602.389 344.635C602.389 344.635 596.346 348.083 591.25 346.05C591.25 346.05 598.969 346.359 601.894 343.95L599.434 341.004C599.434 341.004 593.473 344.26 589.248 342.536C589.248 342.536 598.2 341.998 598.85 340.37C598.85 340.37 596.428 337.814 595.453 337.424C595.453 337.424 591.124 339.634 588.761 338.44C588.761 338.44 594.67 337.453 594.707 336.798C594.707 336.798 590.666 334.3 587.941 334.116C590.454 334.161 592.912 334.862 595.069 336.149C594.732 334.644 593.962 333.269 592.853 332.193C592.853 332.193 595.667 332.51 596.051 336.761C596.051 336.761 599.131 338.838 599.331 339.413C599.331 339.413 599.545 335.162 598.311 332.628C598.311 332.628 601.029 334.801 600.01 340.164L602.544 343.066C602.544 343.066 603.12 337.453 602.196 335.118C602.196 335.118 604.619 337.763 603.127 343.847L605.173 347.022C605.173 347.022 606.045 342.227 605.579 339.405C605.579 339.405 607.293 342.352 605.727 347.958L606.85 350.241C606.85 350.241 607.419 346.727 607.493 345.704C607.566 344.68 607.847 344.613 607.847 344.613C608.292 346.811 608.115 349.088 607.337 351.191C607.337 351.191 609.324 356.053 609.649 355.958Z"
            fill="#F79E44" />
        <path opacity="0.1"
            d="M641.972 712.581C652.958 712.581 661.864 711.081 661.864 709.229C661.864 707.378 652.958 705.878 641.972 705.878C630.986 705.878 622.081 707.378 622.081 709.229C622.081 711.081 630.986 712.581 641.972 712.581Z"
            fill="#F79E44" />
        <path opacity="0.1"
            d="M569.46 763.469C580.446 763.469 589.351 761.968 589.351 760.117C589.351 758.266 580.446 756.765 569.46 756.765C558.474 756.765 549.568 758.266 549.568 760.117C549.568 761.968 558.474 763.469 569.46 763.469Z"
            fill="#F79E44" />
        <path opacity="0.1"
            d="M194.481 737.399C205.466 737.399 214.372 735.898 214.372 734.047C214.372 732.196 205.466 730.695 194.481 730.695C183.495 730.695 174.589 732.196 174.589 734.047C174.589 735.898 183.495 737.399 194.481 737.399Z"
            fill="#F79E44" />
        <path opacity="0.1"
            d="M720.336 760.117C731.321 760.117 740.227 758.616 740.227 756.765C740.227 754.914 731.321 753.413 720.336 753.413C709.35 753.413 700.444 754.914 700.444 756.765C700.444 758.616 709.35 760.117 720.336 760.117Z"
            fill="#F79E44" />
        <path
            d="M741.046 719.248C757.45 719.248 770.747 717.005 770.747 714.238C770.747 711.472 757.45 709.229 741.046 709.229C724.643 709.229 711.346 711.472 711.346 714.238C711.346 717.005 724.643 719.248 741.046 719.248Z"
            fill="#F79E44" />
        <path
            d="M753.36 706.04C754.716 704.941 755.703 703.455 756.189 701.782C756.558 700.088 755.834 698.062 754.217 697.443C752.4 696.751 750.457 698.003 748.98 699.27C747.503 700.537 745.826 701.988 743.898 701.723C744.888 700.826 745.628 699.69 746.047 698.424C746.467 697.157 746.551 695.805 746.291 694.496C746.207 693.954 745.978 693.445 745.626 693.023C744.614 691.948 742.79 692.412 741.579 693.259C737.738 695.955 736.667 701.156 736.644 705.841C736.26 704.154 736.585 702.393 736.578 700.684C736.571 698.975 736.09 697.001 734.621 696.102C733.718 695.601 732.699 695.346 731.666 695.366C729.937 695.307 728.01 695.476 726.835 696.736C725.358 698.298 725.749 700.927 727.02 702.629C728.29 704.331 730.233 705.428 732.02 706.622C733.451 707.474 734.673 708.634 735.596 710.018C735.701 710.21 735.787 710.413 735.854 710.622H746.683C749.107 709.404 751.353 707.862 753.36 706.04V706.04Z"
            fill="#F79E44" />
        <path
            d="M181.126 718.467C181.126 718.467 192.464 718.12 195.899 715.69C199.333 713.259 213.353 710.364 214.202 714.26C215.052 718.157 231.25 733.627 218.442 733.73C205.634 733.833 188.682 731.741 185.27 729.664C181.857 727.586 181.126 718.467 181.126 718.467Z"
            fill="#A8A8A8" />
        <path opacity="0.2"
            d="M218.656 732.375C205.848 732.478 188.896 730.386 185.484 728.308C182.884 726.732 181.85 721.067 181.503 718.452H181.126C181.126 718.452 181.865 727.579 185.255 729.649C188.645 731.719 205.619 733.819 218.427 733.715C222.121 733.715 223.398 732.375 223.332 730.43C222.815 731.616 221.404 732.353 218.656 732.375Z"
            fill="black" />
    </g>
    <defs>
        <linearGradient id="paint0_linear_121_73" x1="290.393" y1="500.848" x2="520.946" y2="500.848"
            gradientUnits="userSpaceOnUse">
            <stop stop-color="#808080" stop-opacity="0.25" />
            <stop offset="0.54" stop-color="#808080" stop-opacity="0.12" />
            <stop offset="1" stop-color="#808080" stop-opacity="0.1" />
        </linearGradient>
        <clipPath id="clip0_121_73">
            <rect width="745.69" height="581.897" fill="white" transform="translate(125.683 181.572)" />
        </clipPath>
    </defs>
</svg>