<svg width="320" height="72" viewBox="0 0 320 72" fill="none" xmlns="http://www.w3.org/2000/svg">
  <path d="M132.946 70.9888V27.0688H116.466V14.9888H163.666V27.0688H146.626V70.9888H132.946Z" fill="#0D161D" />
  <path
    d="M183.879 71.7888C179.505 71.7888 175.585 70.8554 172.119 68.9888C168.652 67.0688 165.932 64.4554 163.959 61.1488C161.985 57.7888 160.999 54.0021 160.999 49.7888C160.999 45.4688 161.985 41.6554 163.959 38.3488C165.932 34.9888 168.652 32.3754 172.119 30.5088C175.585 28.5888 179.505 27.6288 183.879 27.6288C188.305 27.6288 192.225 28.5888 195.639 30.5088C199.105 32.3754 201.825 34.9888 203.799 38.3488C205.772 41.6554 206.759 45.4688 206.759 49.7888C206.759 54.0021 205.772 57.7888 203.799 61.1488C201.825 64.4554 199.105 67.0688 195.639 68.9888C192.225 70.8554 188.305 71.7888 183.879 71.7888ZM183.879 60.7488C185.799 60.7488 187.479 60.2688 188.919 59.3088C190.412 58.3488 191.585 57.0421 192.439 55.3888C193.292 53.7354 193.692 51.8688 193.639 49.7888C193.692 47.6021 193.292 45.6821 192.439 44.0288C191.585 42.3221 190.412 41.0154 188.919 40.1088C187.479 39.1488 185.799 38.6688 183.879 38.6688C182.012 38.6688 180.332 39.1488 178.839 40.1088C177.345 41.0688 176.172 42.3754 175.319 44.0288C174.465 45.6821 174.039 47.6021 174.039 49.7888C174.039 51.8688 174.465 53.7354 175.319 55.3888C176.172 57.0421 177.345 58.3488 178.839 59.3088C180.332 60.2688 182.012 60.7488 183.879 60.7488Z"
    fill="#0D161D" />
  <path
    d="M216.411 70.9888V14.9888H240.011C244.117 14.9888 247.877 15.6821 251.291 17.0688C254.704 18.4021 257.637 20.3221 260.091 22.8288C262.544 25.2821 264.437 28.2421 265.771 31.7088C267.104 35.1221 267.771 38.8821 267.771 42.9888C267.771 47.1488 267.104 50.9354 265.771 54.3488C264.437 57.7621 262.544 60.7221 260.091 63.2288C257.637 65.6821 254.704 67.6021 251.291 68.9888C247.931 70.3221 244.171 70.9888 240.011 70.9888H216.411ZM230.091 61.5488L228.331 58.9088H239.611C241.797 58.9088 243.771 58.5354 245.531 57.7888C247.291 57.0421 248.784 55.9754 250.011 54.5888C251.291 53.1488 252.251 51.4688 252.891 49.5488C253.584 47.5754 253.931 45.3888 253.931 42.9888C253.931 40.5888 253.584 38.4288 252.891 36.5088C252.251 34.5354 251.291 32.8554 250.011 31.4688C248.784 30.0288 247.291 28.9354 245.531 28.1888C243.771 27.4421 241.797 27.0688 239.611 27.0688H228.091L230.091 24.5888V61.5488Z"
    fill="#0D161D" />
  <path
    d="M296.848 71.7888C292.474 71.7888 288.554 70.8554 285.088 68.9888C281.621 67.0688 278.901 64.4554 276.928 61.1488C274.954 57.7888 273.968 54.0021 273.968 49.7888C273.968 45.4688 274.954 41.6554 276.928 38.3488C278.901 34.9888 281.621 32.3754 285.088 30.5088C288.554 28.5888 292.474 27.6288 296.848 27.6288C301.274 27.6288 305.194 28.5888 308.608 30.5088C312.074 32.3754 314.794 34.9888 316.768 38.3488C318.741 41.6554 319.728 45.4688 319.728 49.7888C319.728 54.0021 318.741 57.7888 316.768 61.1488C314.794 64.4554 312.074 67.0688 308.608 68.9888C305.194 70.8554 301.274 71.7888 296.848 71.7888ZM296.848 60.7488C298.768 60.7488 300.448 60.2688 301.888 59.3088C303.381 58.3488 304.554 57.0421 305.408 55.3888C306.261 53.7354 306.661 51.8688 306.608 49.7888C306.661 47.6021 306.261 45.6821 305.408 44.0288C304.554 42.3221 303.381 41.0154 301.888 40.1088C300.448 39.1488 298.768 38.6688 296.848 38.6688C294.981 38.6688 293.301 39.1488 291.808 40.1088C290.314 41.0688 289.141 42.3754 288.288 44.0288C287.434 45.6821 287.008 47.6021 287.008 49.7888C287.008 51.8688 287.434 53.7354 288.288 55.3888C289.141 57.0421 290.314 58.3488 291.808 59.3088C293.301 60.2688 294.981 60.7488 296.848 60.7488Z"
    fill="#0D161D" />
  <path
    d="M3.01861 38.4618C1.45652 36.8998 1.45652 34.3671 3.01861 32.805L11.5039 24.3197C13.066 22.7576 15.5987 22.7576 17.1607 24.3197L46.8592 54.0182C48.4213 55.5803 48.4213 58.113 46.8592 59.6751L38.374 68.1603C36.8119 69.7224 34.2792 69.7224 32.7171 68.1603L3.01861 38.4618Z"
    fill="#F79E44" fill-opacity="0.6" />
  <path
    d="M75.0194 2.84368C76.5815 1.28159 79.1141 1.28159 80.6762 2.84369L89.1615 11.329C90.7236 12.8911 90.7236 15.4237 89.1615 16.9858L37.9869 68.1604C36.4248 69.7225 33.8922 69.7225 32.3301 68.1604L23.8448 59.6751C22.2827 58.113 22.2827 55.5803 23.8448 54.0182L75.0194 2.84368Z"
    fill="#F79E44" />
</svg>
